<?xml version="1.0" encoding="UTF-8" standalone="no"?><svg xmlns="http://www.w3.org/2000/svg" xmlns:xlink="http://www.w3.org/1999/xlink" contentStyleType="text/css" height="366px" preserveAspectRatio="none" style="width:507px;height:366px;background:#FFFFFF;" version="1.1" viewBox="0 0 507 366" width="507px" zoomAndPan="magnify"><defs/><g><ellipse cx="16" cy="80.0659" fill="#222222" rx="10" ry="10" style="stroke:none;stroke-width:1.0;"/><g id="init"><rect fill="#F1F1F1" height="50" rx="12.5" ry="12.5" style="stroke:#181818;stroke-width:0.5;" width="50" x="61" y="55.0659"/><line style="stroke:#181818;stroke-width:0.5;" x1="61" x2="111" y1="81.3628" y2="81.3628"/><text fill="#000000" font-family="sans-serif" font-size="14" lengthAdjust="spacing" textLength="20" x="76" y="73.061">init</text></g><g id="start"><rect fill="#F1F1F1" height="50" rx="12.5" ry="12.5" style="stroke:#181818;stroke-width:0.5;" width="51" x="192.5" y="55.0659"/><line style="stroke:#181818;stroke-width:0.5;" x1="192.5" x2="243.5" y1="81.3628" y2="81.3628"/><text fill="#000000" font-family="sans-serif" font-size="14" lengthAdjust="spacing" textLength="31" x="202.5" y="73.061">start</text></g><g id="error"><rect fill="#F1F1F1" height="50" rx="12.5" ry="12.5" style="stroke:#181818;stroke-width:0.5;" width="53" x="245.5" y="310.5659"/><line style="stroke:#181818;stroke-width:0.5;" x1="245.5" x2="298.5" y1="336.8628" y2="336.8628"/><text fill="#000000" font-family="sans-serif" font-size="14" lengthAdjust="spacing" textLength="33" x="255.5" y="328.561">error</text></g><g id="escape"><rect fill="#F1F1F1" height="50" rx="12.5" ry="12.5" style="stroke:#181818;stroke-width:0.5;" width="71" x="236.5" y="183.5659"/><line style="stroke:#181818;stroke-width:0.5;" x1="236.5" x2="307.5" y1="209.8628" y2="209.8628"/><text fill="#000000" font-family="sans-serif" font-size="14" lengthAdjust="spacing" textLength="51" x="246.5" y="201.561">escape</text></g><g id="content"><rect fill="#F1F1F1" height="50" rx="12.5" ry="12.5" style="stroke:#181818;stroke-width:0.5;" width="74" x="292" y="55.0659"/><line style="stroke:#181818;stroke-width:0.5;" x1="292" x2="366" y1="81.3628" y2="81.3628"/><text fill="#000000" font-family="sans-serif" font-size="14" lengthAdjust="spacing" textLength="54" x="302" y="73.061">content</text></g><g id="end"><rect fill="#F1F1F1" height="52.5938" rx="12.5" ry="12.5" style="stroke:#181818;stroke-width:0.5;" width="50" x="450" y="53.5659"/><line style="stroke:#181818;stroke-width:0.5;" x1="450" x2="500" y1="79.8628" y2="79.8628"/><text fill="#000000" font-family="sans-serif" font-size="14" lengthAdjust="spacing" textLength="27" x="461.5" y="71.561">end</text><text fill="#000000" font-family="sans-serif" font-size="14" lengthAdjust="spacing" textLength="8" x="455" y="97.8579">✅</text></g><!--MD5=[847ec684daa39dd7b47d2a740511cfb5]
link *start to init--><g id="link_*start_init"><path d="M26.12,80.0659 C35.94,80.0659 45.77,80.0659 55.6,80.0659 " fill="none" id="*start-to-init" style="stroke:#181818;stroke-width:1.0;"/><polygon fill="#181818" points="60.74,80.0659,51.74,76.0659,55.74,80.0659,51.74,84.0659,60.74,80.0659" style="stroke:#181818;stroke-width:1.0;"/></g><!--MD5=[7f42cd746f52a3f9426d6a83c0d9a486]
link init to start--><g id="link_init_start"><path d="M111.14,80.0659 C132.7,80.0659 163.84,80.0659 186.95,80.0659 " fill="none" id="init-to-start" style="stroke:#181818;stroke-width:1.0;"/><polygon fill="#181818" points="192.05,80.0659,183.05,76.0659,187.05,80.0659,183.05,84.0659,192.05,80.0659" style="stroke:#181818;stroke-width:1.0;"/><text fill="#000000" font-family="sans-serif" font-size="13" lengthAdjust="spacing" textLength="13" x="145.25" y="73.1328">/"/</text></g><!--MD5=[dec787b48378f8751dbb5b699d562325]
link init to error--><g id="link_init_error"><path d="M88.98,105.1459 C93.86,136.8859 105.85,193.3959 133,233.5659 C160.15,273.7259 208.84,303.5959 240.79,320.0659 " fill="none" id="init-to-error" style="stroke:#181818;stroke-width:1.0;"/><polygon fill="#181818" points="245.37,322.3959,239.1674,314.7455,240.9151,320.1256,235.535,321.8733,245.37,322.3959" style="stroke:#181818;stroke-width:1.0;"/><text fill="#000000" font-family="sans-serif" font-size="13" lengthAdjust="spacing" textLength="34" x="134" y="213.1328">other</text></g><!--MD5=[33815ecb013704aee125652572f78a20]
link start to escape--><g id="link_start_escape"><path d="M211.89,105.1959 C209.42,119.7759 208.48,138.4059 215,153.5659 C219.21,163.3559 226.17,172.2059 233.8,179.7759 " fill="none" id="start-to-escape" style="stroke:#181818;stroke-width:1.0;"/><polygon fill="#181818" points="237.6,183.3859,233.8423,174.2821,233.9797,179.9373,228.3245,180.0747,237.6,183.3859" style="stroke:#181818;stroke-width:1.0;"/><text fill="#000000" font-family="sans-serif" font-size="13" lengthAdjust="spacing" textLength="12" x="216" y="149.6328">/\/</text></g><!--MD5=[2aed75b32e35fdc3593f68afb4c8a14b]
link start to content--><g id="link_start_content"><path d="M243.74,80.0659 C256.41,80.0659 272,80.0659 286.38,80.0659 " fill="none" id="start-to-content" style="stroke:#181818;stroke-width:1.0;"/><polygon fill="#181818" points="291.61,80.0659,282.61,76.0659,286.61,80.0659,282.61,84.0659,291.61,80.0659" style="stroke:#181818;stroke-width:1.0;"/><text fill="#000000" font-family="sans-serif" font-size="13" lengthAdjust="spacing" textLength="12" x="261.75" y="73.1328">/./</text></g><!--MD5=[280d91e6d7f33a025a6cd72337213450]
link start to end--><g id="link_start_end"><path d="M243.57,56.1459 C270.19,34.1859 313.65,6.4659 354.5,16.5659 C387.78,24.7959 422.01,44.0759 445.44,59.2359 " fill="none" id="start-to-end" style="stroke:#181818;stroke-width:1.0;"/><polygon fill="#181818" points="449.69,62.0259,444.3546,53.7474,445.5079,59.2854,439.9699,60.4387,449.69,62.0259" style="stroke:#181818;stroke-width:1.0;"/><text fill="#000000" font-family="sans-serif" font-size="13" lengthAdjust="spacing" textLength="13" x="340.5" y="19.6328">/"/</text></g><!--MD5=[713bd7d7b98fcc5dac32aff9a7a3358b]
link start to error--><g id="link_start_error"><path d="M203.97,105.1659 C188.09,135.7259 166.44,189.7259 183,233.5659 C194.66,264.4359 220.54,291.9859 241.4,310.4759 " fill="none" id="start-to-error" style="stroke:#181818;stroke-width:1.0;"/><polygon fill="#181818" points="245.23,313.8259,241.0908,304.8891,241.4671,310.5334,235.8228,310.9097,245.23,313.8259" style="stroke:#181818;stroke-width:1.0;"/><text fill="#000000" font-family="sans-serif" font-size="13" lengthAdjust="spacing" textLength="34" x="184" y="213.1328">other</text></g><!--MD5=[63db643002b3c4cb08c9b89c2a53b4a2]
link content to escape--><g id="link_content_escape"><path d="M321.01,105.2759 C316.05,119.5459 309.25,137.8259 302,153.5659 C298.1,162.0259 293.39,170.9759 288.87,179.0859 " fill="none" id="content-to-escape" style="stroke:#181818;stroke-width:1.0;"/><polygon fill="#181818" points="286.38,183.5059,294.2704,177.6117,288.8252,179.1446,287.2923,173.6994,286.38,183.5059" style="stroke:#181818;stroke-width:1.0;"/><text fill="#000000" font-family="sans-serif" font-size="13" lengthAdjust="spacing" textLength="12" x="309" y="149.6328">/\/</text></g><!--MD5=[c5bb01cab9858af412beb0c8e5a7ccb9]
reverse link content to escape--><g id="link_content_escape"><path d="M287.81,107.5959 C278.6,115.6959 270.08,125.4459 265,136.5659 C258.31,151.2159 260.22,169.2959 263.72,183.5459 " fill="none" id="content-backto-escape" style="stroke:#181818;stroke-width:1.0;"/><polygon fill="#181818" points="291.78,104.2259,282.3262,106.9874,287.9636,107.4563,287.4948,113.0937,291.78,104.2259" style="stroke:#181818;stroke-width:1.0;"/><text fill="#000000" font-family="sans-serif" font-size="13" lengthAdjust="spacing" textLength="27" x="266" y="149.6328">/[\"]/</text></g><!--MD5=[b053d728444f28943e89c1e1f76dcdab]
link content to end--><g id="link_content_end"><path d="M366.22,80.0659 C390.57,80.0659 421.97,80.0659 444.77,80.0659 " fill="none" id="content-to-end" style="stroke:#181818;stroke-width:1.0;"/><polygon fill="#181818" points="449.79,80.0659,440.79,76.0659,444.79,80.0659,440.79,84.0659,449.79,80.0659" style="stroke:#181818;stroke-width:1.0;"/><text fill="#000000" font-family="sans-serif" font-size="13" lengthAdjust="spacing" textLength="13" x="401.5" y="73.1328">/"/</text></g><!--MD5=[20204b2aa396d03348fe33f89b920769]
link content to content--><g id="link_content_content"><path d="M366.05,68.4159 C384.52,66.8059 401,70.6859 401,80.0659 C401,88.5659 387.47,92.5459 371.18,92.0159 " fill="none" id="content-to-content" style="stroke:#181818;stroke-width:1.0;"/><polygon fill="#181818" points="366.05,91.7159,374.7935,96.2493,371.041,92.0162,375.274,88.2637,366.05,91.7159" style="stroke:#181818;stroke-width:1.0;"/><text fill="#000000" font-family="sans-serif" font-size="13" lengthAdjust="spacing" textLength="4" x="407" y="84.6328">.</text></g><!--MD5=[2a659bea48caa8662aeb894c6f368487]
link content to error--><g id="link_content_error"><path d="M332.82,105.1659 C337.85,144.1059 343.14,222.3759 316,280.5659 C311.77,289.6259 305.69,298.4659 299.38,306.2859 " fill="none" id="content-to-error" style="stroke:#181818;stroke-width:1.0;"/><polygon fill="#181818" points="295.87,310.5259,304.703,306.1694,299.0695,306.6836,298.5553,301.0502,295.87,310.5259" style="stroke:#181818;stroke-width:1.0;"/><text fill="#000000" font-family="sans-serif" font-size="13" lengthAdjust="spacing" textLength="34" x="337" y="213.1328">other</text></g><!--MD5=[c569fba62968f0d8caad7a4d7b5e7a6b]
link escape to error--><g id="link_escape_error"><path d="M272,233.6659 C272,254.1559 272,283.6459 272,305.4459 " fill="none" id="escape-to-error" style="stroke:#181818;stroke-width:1.0;"/><polygon fill="#181818" points="272,310.5359,276,301.5359,272,305.5359,268,301.5359,272,310.5359" style="stroke:#181818;stroke-width:1.0;"/><text fill="#000000" font-family="sans-serif" font-size="13" lengthAdjust="spacing" textLength="34" x="273" y="276.6328">other</text></g><!--MD5=[c4d9fee055e7816ca957860d7126d035]
link end to error--><g id="link_end_error"><path d="M462.72,106.7859 C442.46,147.2959 398.87,226.8659 345,280.5659 C332.35,293.1759 316.6,305.1959 302.98,314.6859 " fill="none" id="end-to-error" style="stroke:#181818;stroke-width:1.0;"/><polygon fill="#181818" points="298.82,317.5459,308.5054,315.759,302.9448,314.7199,303.9838,309.1593,298.82,317.5459" style="stroke:#181818;stroke-width:1.0;"/><text fill="#000000" font-family="sans-serif" font-size="13" lengthAdjust="spacing" textLength="23" x="420" y="213.1328">any</text></g><!--MD5=[1ff7e3a7e37df2a36d956a6f0fda6927]
link error to error--><g id="link_error_error"><path d="M298.55,324.9659 C316.26,321.9859 333.5,325.5159 333.5,335.5659 C333.5,344.5959 319.58,348.3659 303.91,346.8759 " fill="none" id="error-to-error" style="stroke:#181818;stroke-width:1.0;"/><polygon fill="#181818" points="298.55,346.1659,306.9463,351.314,303.5066,346.823,307.9976,343.3833,298.55,346.1659" style="stroke:#181818;stroke-width:1.0;"/><text fill="#000000" font-family="sans-serif" font-size="13" lengthAdjust="spacing" textLength="23" x="339.5" y="340.1328">any</text></g><!--MD5=[41d4c44e60a9980369871012eac2a4b1]
@startuml string-machine

[*] -r-> init

init -r-> start : /"/
init -d-> error : other

start -d-> escape : /\\/
start -r-> content : /./
start -r-> end : /"/
start -d-> error : other

content -r-> escape : /\\/
content -r-> end : /"/
content - -> content : .
content -d-> error : other

escape -u-> content : /[\\"]/
escape -d-> error : other

end - -> error : any
end : ✅

error - -> error : any

@enduml

PlantUML version 1.2022.7(Mon Aug 22 19:01:30 CEST 2022)
(GPL source distribution)
Java Runtime: OpenJDK Runtime Environment
JVM: OpenJDK 64-Bit Server VM
Default Encoding: UTF-8
Language: en
Country: null
--></g></svg>